<svg width="50" height="50" xmlns="http://www.w3.org/2000/svg">

 <g>
  <title>background</title>
  <rect fill="none" id="canvas_background" height="402" width="582" y="-1" x="-1"/>
 </g>
 <g>
  <title>Layer 1</title>
  <path stroke-width="0" id="svg_1" d="m26,4.051l0,-3.051l-2,0l0,3.051c-10.78,0.511 -19.438,9.169 -19.949,19.949l-3.051,0l0,2l3.051,0c0.511,10.78 9.169,19.438 19.949,19.949l0,3.051l2,0l0,-3.051c10.78,-0.511 19.438,-9.169 19.949,-19.949l3.051,0l0,-2l-3.051,0c-0.511,-10.78 -9.169,-19.438 -19.949,-19.949zm0,39.898l0,-2.949l-2,0l0,2.949c-9.677,-0.507 -17.442,-8.272 -17.949,-17.949l2.949,0l0,-2l-2.949,0c0.507,-9.677 8.272,-17.442 17.949,-17.949l0,2.949l2,0l0,-2.949c9.677,0.507 17.442,8.272 17.949,17.949l-2.949,0l0,2l2.949,0c-0.507,9.677 -8.272,17.442 -17.949,17.949z"/>
  <path id="svg_2" d="m25,13c-5.215,0 -9,4.206 -9,10c0,5.889 7.978,13.413 8.317,13.73l0.683,0.639l0.683,-0.639c0.339,-0.317 8.317,-7.841 8.317,-13.73c0,-5.794 -3.785,-10 -9,-10zm0,21.597c-1.882,-1.909 -7,-7.477 -7,-11.597c0,-4.71 2.878,-8 7,-8s7,3.29 7,8c0,4.12 -5.118,9.688 -7,11.597z"/>
  <path id="svg_3" d="m25,18c-2.206,0 -4,1.794 -4,4s1.794,4 4,4s4,-1.794 4,-4s-1.794,-4 -4,-4zm0,6c-1.103,0 -2,-0.897 -2,-2s0.897,-2 2,-2s2,0.897 2,2s-0.897,2 -2,2z"/>
  <line stroke="#000" stroke-linecap="undefined" stroke-linejoin="undefined" id="svg_6" y2="6.141022" x2="43.738675" y1="43.618378" x1="6.26132" fill-opacity="null" stroke-opacity="null" stroke-width="4" fill="none"/>
 </g>
</svg>