<?xml version="1.0" encoding="UTF-8" standalone="no"?>
<!-- Created with Inkscape (http://www.inkscape.org/) -->

<svg
   xmlns:dc="http://purl.org/dc/elements/1.1/"
   xmlns:cc="http://creativecommons.org/ns#"
   xmlns:rdf="http://www.w3.org/1999/02/22-rdf-syntax-ns#"
   xmlns:svg="http://www.w3.org/2000/svg"
   xmlns="http://www.w3.org/2000/svg"
   xmlns:sodipodi="http://sodipodi.sourceforge.net/DTD/sodipodi-0.dtd"
   xmlns:inkscape="http://www.inkscape.org/namespaces/inkscape"
   width="64"
   height="64"
   viewBox="0 0 16.933333 16.933333"
   version="1.1"
   id="svg8"
   sodipodi:docname="crosshair-marker.svg"
   inkscape:version="0.92.4 (5da689c313, 2019-01-14)">
  <defs
     id="defs2" />
  <sodipodi:namedview
     id="base"
     pagecolor="#ffffff"
     bordercolor="#666666"
     borderopacity="1.0"
     inkscape:pageopacity="0.0"
     inkscape:pageshadow="2"
     inkscape:zoom="5.6568542"
     inkscape:cx="12.900794"
     inkscape:cy="32.592978"
     inkscape:document-units="px"
     inkscape:current-layer="layer1"
     showgrid="false"
     inkscape:window-width="1366"
     inkscape:window-height="705"
     inkscape:window-x="-8"
     inkscape:window-y="-8"
     inkscape:window-maximized="1"
     units="px"
     fit-margin-top="0"
     fit-margin-left="0"
     fit-margin-right="0"
     fit-margin-bottom="0">
    <inkscape:grid
       type="xygrid"
       id="grid815"
       empspacing="10"
       originx="-84.661751"
       originy="-95.755509" />
  </sodipodi:namedview>
  <metadata
     id="metadata5">
    <rdf:RDF>
      <cc:Work
         rdf:about="">
        <dc:format>image/svg+xml</dc:format>
        <dc:type
           rdf:resource="http://purl.org/dc/dcmitype/StillImage" />
        <dc:title></dc:title>
      </cc:Work>
    </rdf:RDF>
  </metadata>
  <g
     inkscape:label="Layer 1"
     inkscape:groupmode="layer"
     id="layer1"
     transform="translate(-84.661749,-184.31117)">
    <circle
       style="opacity:1;fill:#ffffff;fill-opacity:1;stroke:none;stroke-width:2.62352419;stroke-linecap:round;stroke-linejoin:round;stroke-miterlimit:4;stroke-dasharray:none;stroke-opacity:1"
       id="path1404"
       cx="153.45833"
       cy="130.29872"
       r="8.0714045" />
    <path
       style="display:inline;opacity:1;fill:#3f7ffe;fill-opacity:1;stroke:none;stroke-width:1.58374298;stroke-linecap:round;stroke-linejoin:round;stroke-miterlimit:4;stroke-dasharray:none;stroke-opacity:1"
       d="m 93.128414,184.31117 c -2.69099,0 -4.87247,2.18148 -4.87247,4.87247 0.003,0.85599 0.23013,1.69627 0.66046,2.43621 1.40227,2.78249 3.34029,5.95818 4.02933,9.25386 0,0 0.045,0.37079 0.182681,0.37079 0.137829,0 0.18267,-0.37079 0.18267,-0.37079 0.68307,-3.27003 2.59768,-6.42521 4.03125,-9.25386 0.42966,-0.74015 0.656792,-1.58042 0.658552,-2.43621 0,-2.69099 -2.181482,-4.87247 -4.872473,-4.87247 z"
       id="path817"
       inkscape:connector-curvature="0"
       sodipodi:nodetypes="scccacccs" />
    <circle
       style="display:inline;opacity:1;fill:#ffffff;fill-opacity:1;stroke:none;stroke-width:1.46720123;stroke-linecap:round;stroke-linejoin:round;stroke-miterlimit:4;stroke-dasharray:none;stroke-dashoffset:0;stroke-opacity:1"
       id="path1396"
       cx="93.128418"
       cy="189.22023"
       r="2.4208822" />
    <path
       sodipodi:nodetypes="scccacccs"
       inkscape:connector-curvature="0"
       id="path2529"
       d="m 93.128414,184.31117 c -2.69099,0 -4.87247,2.18148 -4.87247,4.87247 0.003,0.85599 0.23013,1.69627 0.66046,2.43621 1.40227,2.78249 3.34029,5.95818 4.02933,9.25386 0,0 0.045,0.37079 0.182681,0.37079 0.137829,0 0.18267,-0.37079 0.18267,-0.37079 0.68307,-3.27003 2.59768,-6.42521 4.03125,-9.25386 0.42966,-0.74015 0.656792,-1.58042 0.658552,-2.43621 0,-2.69099 -2.181482,-4.87247 -4.872473,-4.87247 z"
       style="display:inline;opacity:1;fill:#3f7ffe;fill-opacity:1;stroke:none;stroke-width:1.58374298;stroke-linecap:round;stroke-linejoin:round;stroke-miterlimit:4;stroke-dasharray:none;stroke-opacity:1" />
    <circle
       r="2.4208822"
       cy="189.22023"
       cx="93.128418"
       id="circle2531"
       style="display:inline;opacity:1;fill:#ffffff;fill-opacity:1;stroke:none;stroke-width:1.46720123;stroke-linecap:round;stroke-linejoin:round;stroke-miterlimit:4;stroke-dasharray:none;stroke-dashoffset:0;stroke-opacity:1" />
    <path
       style="display:inline;opacity:1;fill:#3f7ffe;fill-opacity:1;stroke:none;stroke-width:1.58374298;stroke-linecap:round;stroke-linejoin:round;stroke-miterlimit:4;stroke-dasharray:none;stroke-opacity:1"
       d="m 93.128414,184.31117 c -2.69099,0 -4.87247,2.18148 -4.87247,4.87247 0.003,0.85599 0.23013,1.69627 0.66046,2.43621 1.40227,2.78249 3.34029,5.95818 4.02933,9.25386 0,0 0.045,0.37079 0.182681,0.37079 0.137829,0 0.18267,-0.37079 0.18267,-0.37079 0.68307,-3.27003 2.59768,-6.42521 4.03125,-9.25386 0.42966,-0.74015 0.656792,-1.58042 0.658552,-2.43621 0,-2.69099 -2.181482,-4.87247 -4.872473,-4.87247 z"
       id="path2535"
       inkscape:connector-curvature="0"
       sodipodi:nodetypes="scccacccs" />
    <path
       style="display:inline;opacity:1;fill:#ffffff;fill-opacity:1;stroke:none;stroke-width:5.54532766;stroke-linecap:round;stroke-linejoin:round;stroke-miterlimit:4;stroke-dasharray:none;stroke-dashoffset:0;stroke-opacity:1"
       d="M 32 9.4042969 A 9.1497912 9.1497912 0 0 0 22.849609 18.554688 A 9.1497912 9.1497912 0 0 0 32 27.703125 A 9.1497912 9.1497912 0 0 0 41.150391 18.554688 A 9.1497912 9.1497912 0 0 0 32 9.4042969 z M 32 15.029297 A 3.5247912 3.5247912 0 0 1 35.525391 18.554688 A 3.5247912 3.5247912 0 0 1 32 22.078125 A 3.5247912 3.5247912 0 0 1 28.474609 18.554688 A 3.5247912 3.5247912 0 0 1 32 15.029297 z "
       transform="matrix(0.26458333,0,0,0.26458333,84.661749,184.31117)"
       id="circle2537" />
    <path
       style="opacity:1;fill:#ffffff;fill-opacity:1;stroke:none;stroke-width:6.12919521;stroke-linecap:round;stroke-linejoin:round;stroke-miterlimit:4;stroke-dasharray:none;stroke-dashoffset:0;stroke-opacity:1"
       d="M 32 4.3652344 C 30.061 4.3652344 28.5 5.9262233 28.5 7.8652344 L 28.5 18.150391 A 3.5247912 3.5247912 0 0 1 32 15.029297 A 3.5247912 3.5247912 0 0 1 35.5 18.177734 L 35.5 7.8652344 C 35.5 5.9262233 33.939 4.3652344 32 4.3652344 z M 28.5 18.929688 L 28.5 29.242188 C 28.5 31.181199 30.061 32.742188 32 32.742188 C 33.939 32.742188 35.5 31.181199 35.5 29.242188 L 35.5 18.957031 A 3.5247912 3.5247912 0 0 1 32 22.078125 A 3.5247912 3.5247912 0 0 1 28.5 18.929688 z "
       transform="matrix(0.26458333,0,0,0.26458333,84.661749,184.31117)"
       id="rect2517" />
    <path
       style="opacity:1;fill:#ffffff;fill-opacity:1;stroke:none;stroke-width:6.12919521;stroke-linecap:round;stroke-linejoin:round;stroke-miterlimit:4;stroke-dasharray:none;stroke-dashoffset:0;stroke-opacity:1"
       d="M 21.3125 15.054688 C 19.373496 15.054688 17.8125 16.615676 17.8125 18.554688 C 17.8125 20.493699 19.373496 22.054688 21.3125 22.054688 L 31.609375 22.054688 A 3.5247912 3.5247912 0 0 1 28.474609 18.554688 A 3.5247912 3.5247912 0 0 1 31.607422 15.054688 L 21.3125 15.054688 z M 32.404297 15.054688 A 3.5247912 3.5247912 0 0 1 35.525391 18.554688 A 3.5247912 3.5247912 0 0 1 32.376953 22.054688 L 42.6875 22.054688 C 44.6265 22.054688 46.1875 20.493699 46.1875 18.554688 C 46.1875 16.615676 44.6265 15.054688 42.6875 15.054688 L 32.404297 15.054688 z "
       transform="matrix(0.26458333,0,0,0.26458333,84.661749,184.31117)"
       id="rect2519" />
  </g>
</svg>
