<?xml version="1.0" encoding="UTF-8" standalone="no"?>
<!-- Created with Inkscape (http://www.inkscape.org/) -->

<svg
   xmlns:dc="http://purl.org/dc/elements/1.1/"
   xmlns:cc="http://creativecommons.org/ns#"
   xmlns:rdf="http://www.w3.org/1999/02/22-rdf-syntax-ns#"
   xmlns:svg="http://www.w3.org/2000/svg"
   xmlns="http://www.w3.org/2000/svg"
   xmlns:sodipodi="http://sodipodi.sourceforge.net/DTD/sodipodi-0.dtd"
   xmlns:inkscape="http://www.inkscape.org/namespaces/inkscape"
   width="31mm"
   height="35mm"
   viewBox="0 0 31 35"
   version="1.1"
   id="svg8"
   inkscape:version="0.92.4 (5da689c313, 2019-01-14)"
   sodipodi:docname="current-location.svg">
  <defs
     id="defs2" />
  <sodipodi:namedview
     id="base"
     pagecolor="#ffffff"
     bordercolor="#666666"
     borderopacity="1.0"
     inkscape:pageopacity="0.0"
     inkscape:pageshadow="2"
     inkscape:zoom="0.24748737"
     inkscape:cx="-0.47533063"
     inkscape:cy="468.3107"
     inkscape:document-units="mm"
     inkscape:current-layer="layer1"
     showgrid="false"
     showguides="true"
     inkscape:guide-bbox="true"
     inkscape:lockguides="true"
     inkscape:window-width="1366"
     inkscape:window-height="705"
     inkscape:window-x="-8"
     inkscape:window-y="-8"
     inkscape:window-maximized="1"
     fit-margin-top="0"
     fit-margin-left="0"
     fit-margin-right="0"
     fit-margin-bottom="0">
    <sodipodi:guide
       position="129.26786,150.43452"
       orientation="0,1"
       id="guide818"
       inkscape:locked="true" />
    <sodipodi:guide
       position="129.26786,150.43452"
       orientation="1,0"
       id="guide842"
       inkscape:locked="true" />
  </sodipodi:namedview>
  <metadata
     id="metadata5">
    <rdf:RDF>
      <cc:Work
         rdf:about="">
        <dc:format>image/svg+xml</dc:format>
        <dc:type
           rdf:resource="http://purl.org/dc/dcmitype/StillImage" />
        <dc:title></dc:title>
      </cc:Work>
    </rdf:RDF>
  </metadata>
  <g
     inkscape:label="Layer 1"
     inkscape:groupmode="layer"
     id="layer1"
     transform="translate(-52.203566,-211.35144)">
    <g
       id="g3188"
       transform="matrix(0.20113078,0,0,0.19790754,41.703822,197.59663)">
      <path
         sodipodi:nodetypes="cccacaccc"
         inkscape:connector-curvature="0"
         id="path844"
         d="M 129.26811,69.501183 C 86.706462,69.501 52.203383,104.00408 52.203566,146.56573 c 0.0092,7.16029 1.016219,14.28437 2.992064,21.16667 0,0 3.255367,9.13804 6.032117,13.04017 18.260321,25.66101 68.020213,65.57887 68.020213,65.57887 0,0 47.70632,-39.25197 66.13033,-63.68899 3.39165,-4.49857 7.92199,-14.93005 7.92199,-14.93005 1.98931,-6.88039 3.00975,-14.00451 3.03186,-21.16667 1.8e-4,-42.56145 -34.50258,-77.064444 -77.06403,-77.064547 z"
         style="opacity:1;fill:#4d3bdf;fill-opacity:0.94117647;stroke:none;stroke-width:3;stroke-linecap:round;stroke-linejoin:round;stroke-miterlimit:4;stroke-dasharray:none;stroke-dashoffset:0;stroke-opacity:1" />
      <path
         id="path854"
         transform="scale(0.26458333)"
         d="M 450,340.44141 A 217.14283,217.14283 0 0 0 275.24219,513.94922 h 77.76953 A 141.42856,141.42856 0 0 1 450,417.91992 Z m 78.57227,0.21679 v 77.71875 a 141.42856,141.42856 0 0 1 95.60546,95.57227 h 77.65821 A 217.14283,217.14283 0 0 0 528.57227,340.6582 Z M 275.08008,592.51953 A 217.14283,217.14283 0 0 0 450,767.55859 v -77.67578 a 141.42856,141.42856 0 0 1 -97.35352,-97.36328 z m 349.39844,0 a 141.42856,141.42856 0 0 1 -95.90625,96.98242 v 77.73633 A 217.14283,217.14283 0 0 0 702.17188,592.51953 Z"
         style="opacity:0.9;fill:#ffffff;fill-opacity:1;stroke:none;stroke-width:11.33858299;stroke-linecap:round;stroke-linejoin:round;stroke-miterlimit:4;stroke-dasharray:none;stroke-dashoffset:0;stroke-opacity:1"
         inkscape:connector-curvature="0" />
    </g>
  </g>
</svg>
